<svg width="36" height="36" viewBox="0 0 36 36" fill="none" xmlns="http://www.w3.org/2000/svg">
<path fill-rule="evenodd" clip-rule="evenodd" d="M4.99826 32.4011L2.10938 0H33.8537L30.9617 32.3958L17.9623 36L4.99826 32.4011Z" fill="#0071BC"/>
<path fill-rule="evenodd" clip-rule="evenodd" d="M18.0082 33.2434L28.4993 30.3573L30.9573 2.69833H18.0082V33.2434Z" fill="#29ABE2"/>
<path fill-rule="evenodd" clip-rule="evenodd" d="M8.72205 14.6024L9.07004 18.5704L18.0082 14.6024V10.6279L8.72205 14.6024Z" fill="#B3B3B3"/>
<path fill-rule="evenodd" clip-rule="evenodd" d="M27.9075 6.38536L18.0082 10.6279V14.6024L27.5661 10.3534L27.9075 6.38536Z" fill="#E6E6E6"/>
<path fill-rule="evenodd" clip-rule="evenodd" d="M18.0081 24.9847L17.9774 24.9893L13.5447 23.7989L13.2551 20.6338H9.26575L9.82246 26.8692L17.9765 29.1269L18.0081 29.1194V24.9847Z" fill="#E6E6E6"/>
<path fill-rule="evenodd" clip-rule="evenodd" d="M18.0082 14.6024V18.5704H22.8612L22.4202 23.7583L18.0082 24.9881V29.1225L26.1352 26.8648L27.2054 14.6024H18.0082Z" fill="#F4F1FF"/>
<path fill-rule="evenodd" clip-rule="evenodd" d="M18.0082 14.6024H8.72205L9.07004 18.5704H18.0082V14.6024Z" fill="#E6E6E6"/>
<path fill-rule="evenodd" clip-rule="evenodd" d="M18.0082 10.3534V6.38536H17.9678H8.01648L8.3686 10.3534H18.0082Z" fill="#E6E6E6"/>
<path fill-rule="evenodd" clip-rule="evenodd" d="M18.0082 6.38536V10.3036V10.3534H27.5661L27.9075 6.38536H18.0082Z" fill="#F4F1FF"/>
</svg>
