<svg width="36" height="36" viewBox="0 0 36 36" fill="none" xmlns="http://www.w3.org/2000/svg">
<path fill-rule="evenodd" clip-rule="evenodd" d="M35.321 16.3963L19.6029 0.679014C18.6983 -0.226338 17.2301 -0.226338 16.3244 0.679014L13.0605 3.94294L17.2009 8.08339C18.1631 7.7583 19.2663 7.97634 20.0334 8.74344C20.804 9.51528 21.0205 10.628 20.6875 11.5934L24.6778 15.5838C25.6432 15.2512 26.7571 15.4664 27.5281 16.2387C28.6056 17.3158 28.6056 19.0618 27.5281 20.1397C26.4501 21.2177 24.7042 21.2177 23.6259 20.1397C22.8154 19.3284 22.6151 18.1379 23.0255 17.1393L19.3042 13.4179L19.3038 23.2109C19.5665 23.3413 19.8146 23.5147 20.0334 23.7327C21.111 24.8099 21.111 26.5558 20.0334 27.6346C18.9555 28.7121 17.2088 28.7121 16.1324 27.6346C15.0548 26.5558 15.0548 24.8099 16.1324 23.7327C16.3986 23.4669 16.7067 23.2658 17.0354 23.1307V13.2465C16.7067 13.1122 16.399 12.9123 16.1324 12.6445C15.3159 11.8292 15.1196 10.6312 15.5379 9.62865L11.4568 5.54667L0.679297 16.3236C-0.226433 17.2297 -0.226433 18.698 0.679297 19.6033L16.3974 35.321C17.3024 36.2263 18.7702 36.2263 19.6763 35.321L35.321 19.6764C36.2263 18.7707 36.2263 17.3016 35.321 16.3963Z" fill="#DE4C36"/>
</svg>
