<svg width="36" height="36" viewBox="0 0 36 36" fill="none" xmlns="http://www.w3.org/2000/svg">
<path fill-rule="evenodd" clip-rule="evenodd" d="M4.99818 32.4013L2.10938 0H33.8523L30.9605 32.3962L17.9614 36L4.99818 32.4013Z" fill="#E44D26"/>
<path fill-rule="evenodd" clip-rule="evenodd" d="M17.9808 33.2454L28.4847 30.3334L30.956 2.64929H17.9808V33.2454Z" fill="#F16529"/>
<path d="M12.7224 14.6665H17.9809V18.6403H9.08806L8.01624 6.62321H17.9809V10.5971H12.3592L12.7224 14.6665Z" fill="#EBEBEB"/>
<path d="M17.9634 24.9917L17.9809 24.9871V29.1216L17.9626 29.1267L9.82236 26.8669L9.26562 20.6273H13.2548L13.5377 23.7967L17.9634 24.9917Z" fill="#EBEBEB"/>
<path d="M17.9672 6.62321H27.9218L27.566 10.5971H17.9672V6.62321Z" fill="#F4F1FF"/>
<path d="M17.9672 18.6403V14.6665H27.2044L27.1074 15.7336L26.1138 26.8669L17.9672 29.1247V24.9904L22.3993 23.7941L22.8606 18.6403H17.9672Z" fill="#F4F1FF"/>
</svg>
