<svg width="36" height="36" viewBox="0 0 36 36" fill="none" xmlns="http://www.w3.org/2000/svg">
<g clip-path="url(#clip0_33_663)">
<path fill-rule="evenodd" clip-rule="evenodd" d="M0 0H36V36H0V0V0Z" fill="#F7DF1E"/>
<path fill-rule="evenodd" clip-rule="evenodd" d="M9.46576 30.0842L12.2207 28.417C12.7522 29.3593 13.2357 30.1566 14.3954 30.1566C15.5071 30.1566 16.2079 29.7218 16.2079 28.0304V16.5275H19.591V28.0782C19.591 31.5822 17.5371 33.1771 14.5404 33.1771C11.8341 33.1771 10.2631 31.7754 9.4657 30.084" fill="black"/>
<path fill-rule="evenodd" clip-rule="evenodd" d="M21.4286 29.7217L24.1832 28.1268C24.9084 29.311 25.8508 30.1809 27.5181 30.1809C28.9199 30.1809 29.8138 29.4801 29.8138 28.5134C29.8138 27.3535 28.8956 26.9426 27.3489 26.2662L26.5034 25.9035C24.0625 24.8646 22.4434 23.5597 22.4434 20.8047C22.4434 18.2674 24.3766 16.3341 27.3974 16.3341C29.5481 16.3341 31.0947 17.0833 32.2062 19.0407L29.5721 20.7322C28.9921 19.6931 28.364 19.2824 27.3974 19.2824C26.4066 19.2824 25.7783 19.9107 25.7783 20.7322C25.7783 21.7471 26.4066 22.1581 27.8564 22.7864L28.7021 23.1489C31.5778 24.3814 33.197 25.6378 33.197 28.4651C33.197 31.5101 30.8046 33.1774 27.5907 33.1774C24.4492 33.1774 22.4193 31.6792 21.4286 29.7217" fill="black"/>
</g>
<defs>
<clipPath id="clip0_33_663">
<rect width="36" height="36" rx="2.5" fill="white"/>
</clipPath>
</defs>
</svg>
