<svg width="36" height="36" viewBox="0 0 36 36" fill="none" xmlns="http://www.w3.org/2000/svg">
<path d="M16.8211 0.00968773C16.7437 0.0167248 16.4974 0.0413546 16.2757 0.0589474C11.1625 0.519877 6.37302 3.27842 3.33959 7.51826C1.65044 9.87569 0.570088 12.5498 0.161877 15.3822C0.0175953 16.3709 0 16.663 0 18.0035C0 19.3441 0.0175953 19.6361 0.161877 20.6248C1.14018 27.384 5.95073 33.0629 12.4751 35.167C13.6434 35.5435 14.8751 35.8003 16.2757 35.9551C16.8211 36.015 19.1789 36.015 19.7243 35.9551C22.1419 35.6877 24.19 35.0896 26.21 34.0586C26.5196 33.9003 26.5795 33.8581 26.5372 33.8229C26.5091 33.8018 25.1894 32.032 23.6059 29.8927L20.7273 26.0047L17.1202 20.6671C15.1355 17.7326 13.5026 15.3329 13.4886 15.3329C13.4745 15.3294 13.4604 17.7009 13.4534 20.5967C13.4428 25.6669 13.4393 25.871 13.376 25.9906C13.2845 26.163 13.2141 26.2334 13.0663 26.3108C12.9537 26.3671 12.8551 26.3777 12.3238 26.3777H11.715L11.5531 26.2756C11.4475 26.2088 11.3701 26.1208 11.3173 26.0188L11.2434 25.8604L11.2504 18.8058L11.261 11.7476L11.3701 11.6103C11.4264 11.5364 11.546 11.4414 11.6305 11.3957C11.7748 11.3253 11.8311 11.3183 12.4399 11.3183C13.1578 11.3183 13.2774 11.3464 13.4639 11.5505C13.5167 11.6068 15.4698 14.5483 17.8065 18.0915C20.1431 21.6347 23.3384 26.4727 24.9079 28.8477L27.7584 33.1649L27.9026 33.0699C29.1801 32.2396 30.5314 31.0573 31.6012 29.8258C33.878 27.2116 35.3455 24.0238 35.8381 20.6248C35.9824 19.6361 36 19.3441 36 18.0035C36 16.663 35.9824 16.3709 35.8381 15.3822C34.8598 8.62309 30.0493 2.94415 23.5249 0.840064C22.3742 0.467099 21.1496 0.210245 19.7771 0.0554288C19.4393 0.0202434 17.1132 -0.0184606 16.8211 0.00968773ZM24.19 10.8961C24.3589 10.9805 24.4962 11.1424 24.5455 11.3113C24.5736 11.4027 24.5806 13.359 24.5736 17.7678L24.563 24.0941L23.4475 22.3841L22.3284 20.6741V16.0754C22.3284 13.1022 22.3425 11.4309 22.3636 11.35C22.4199 11.1529 22.5431 10.9981 22.712 10.9066C22.8563 10.8327 22.9091 10.8257 23.4616 10.8257C23.9824 10.8257 24.0739 10.8327 24.19 10.8961Z" fill="#F4F1FF"/>
</svg>
