<svg width="36" height="36" viewBox="0 0 36 36" fill="none" xmlns="http://www.w3.org/2000/svg">
<path fill-rule="evenodd" clip-rule="evenodd" d="M24.1112 6.98535C24.1681 6.9528 24.2495 6.9528 24.3146 6.98535L26.3734 8.13273C26.5036 8.20596 26.585 8.3443 26.585 8.49891V18.4184C26.585 18.5649 26.5036 18.7033 26.3734 18.7765L22.9231 20.7702C22.7929 20.8434 22.6383 20.8434 22.5081 20.7702L19.0578 18.7765C18.9276 18.7033 18.8463 18.5649 18.8463 18.4184V14.4392C18.8463 14.2928 18.9276 14.1544 19.0578 14.0812L22.5081 12.0875C22.6383 12.0143 22.7929 12.0143 22.9231 12.0875L23.7857 12.5839C23.8345 12.6083 23.8833 12.6083 23.9321 12.5839C23.981 12.5514 24.0054 12.5025 24.0054 12.4537V7.16437C24.0054 7.09114 24.0461 7.02604 24.1112 6.98535ZM22.7685 17.8814L23.9484 17.1978C23.9809 17.1816 23.9972 17.149 23.9972 17.1083V15.7412C23.9972 15.7087 23.9809 15.668 23.9484 15.6517L22.7685 14.9682C22.7359 14.9519 22.6952 14.9519 22.6627 14.9682L21.4828 15.6517C21.4502 15.668 21.4339 15.7005 21.4339 15.7412V17.1083C21.4339 17.1409 21.4502 17.1816 21.4828 17.1978L22.6627 17.8814C22.6952 17.8976 22.7359 17.8976 22.7685 17.8814Z" fill="url(#paint0_linear_33_230)"/>
<path d="M7.73056 14.3335C7.73056 14.187 7.64919 14.0486 7.51899 13.9754L4.06872 11.9899C4.01175 11.9573 3.94666 11.941 3.88156 11.9329H3.84901C3.78391 11.9329 3.71881 11.9573 3.66185 11.9899L0.211573 13.9754C0.0813743 14.0486 0 14.187 0 14.3335L0.00813743 19.6716C0.00813743 19.7448 0.0488246 19.8181 0.113924 19.8506C0.179024 19.8913 0.260398 19.8913 0.31736 19.8506L2.36799 18.6788C2.49819 18.6056 2.57957 18.4673 2.57957 18.3208V15.8226C2.57957 15.6761 2.66094 15.5378 2.79114 15.4646L3.66185 14.96C3.72694 14.9193 3.80018 14.9031 3.87342 14.9031C3.94666 14.9031 4.01989 14.9193 4.07685 14.96L4.94756 15.4646C5.07776 15.5378 5.15913 15.6761 5.15913 15.8226V18.3208C5.15913 18.4673 5.24051 18.6056 5.37071 18.6788L7.42134 19.8506C7.48644 19.8913 7.56781 19.8913 7.63291 19.8506C7.69801 19.8181 7.7387 19.7448 7.7387 19.6716L7.73056 14.3335Z" fill="url(#paint1_linear_33_230)"/>
<path d="M17.8047 29.0052C17.6826 29.0052 17.5687 28.9727 17.4629 28.9157L16.3806 28.2729C16.2179 28.1834 16.2992 28.1508 16.3481 28.1345C16.5678 28.0613 16.6085 28.045 16.8363 27.9148C16.8607 27.8986 16.8933 27.9067 16.9177 27.923L17.7477 28.4193C17.7803 28.4356 17.8209 28.4356 17.8454 28.4193L21.0922 26.5396C21.1247 26.5233 21.141 26.4908 21.141 26.4501V22.6987C21.141 22.658 21.1247 22.6255 21.0922 22.6092L17.8454 20.7376C17.8128 20.7213 17.7721 20.7213 17.7477 20.7376L14.5009 22.6092C14.4683 22.6255 14.452 22.6662 14.452 22.6987V26.4501C14.452 26.4826 14.4683 26.5233 14.5009 26.5396L15.3879 27.0523C15.868 27.2964 16.169 27.0116 16.169 26.7268V23.0242C16.169 22.9754 16.2097 22.9266 16.2667 22.9266H16.6817C16.7305 22.9266 16.7794 22.9673 16.7794 23.0242V26.7268C16.7794 27.3696 16.4294 27.7439 15.8191 27.7439C15.632 27.7439 15.4855 27.7439 15.0705 27.5405L14.2161 27.0523C14.0045 26.9302 13.8743 26.7024 13.8743 26.4582V22.7069C13.8743 22.4627 14.0045 22.2349 14.2161 22.1128L17.4629 20.2331C17.6663 20.1192 17.943 20.1192 18.1464 20.2331L21.3933 22.1128C21.6049 22.2349 21.7351 22.4627 21.7351 22.7069V26.4582C21.7351 26.7024 21.6049 26.9302 21.3933 27.0523L18.1464 28.932C18.0407 28.9808 17.9186 29.0052 17.8047 29.0052Z" fill="url(#paint2_linear_33_230)"/>
<path d="M18.8056 26.4257C17.3815 26.4257 17.0886 25.7747 17.0886 25.2213C17.0886 25.1725 17.1293 25.1237 17.1862 25.1237H17.6094C17.6582 25.1237 17.6989 25.1562 17.6989 25.2051C17.764 25.6363 17.9511 25.8479 18.8137 25.8479C19.4973 25.8479 19.7902 25.6933 19.7902 25.3271C19.7902 25.1156 19.7088 24.9609 18.6428 24.8552C17.7558 24.7656 17.2025 24.5703 17.2025 23.8624C17.2025 23.2033 17.7558 22.8127 18.6835 22.8127C19.7251 22.8127 20.2378 23.1707 20.3029 23.9519C20.3029 23.9763 20.2947 24.0007 20.2785 24.0251C20.2622 24.0414 20.2378 24.0577 20.2134 24.0577H19.7902C19.7495 24.0577 19.7088 24.0251 19.7007 23.9844C19.603 23.5369 19.3508 23.3904 18.6835 23.3904C17.9349 23.3904 17.8454 23.6508 17.8454 23.8461C17.8454 24.0821 17.9511 24.1553 18.9602 24.2855C19.9611 24.4157 20.4331 24.6029 20.4331 25.3027C20.4249 26.0188 19.839 26.4257 18.8056 26.4257Z" fill="url(#paint3_linear_33_230)"/>
<path d="M33.7459 16.9049L35.7966 15.7087C35.9268 15.6354 36 15.4971 36 15.3506V14.3823C36 14.2358 35.9186 14.0975 35.7966 14.0242L32.3707 12.0387C32.2405 11.9655 32.0859 11.9655 31.9557 12.0387L28.5054 14.0324C28.3752 14.1056 28.2938 14.2439 28.2938 14.3904V18.3696C28.2938 18.5161 28.3752 18.6544 28.5054 18.7277L31.9313 20.6807C32.0615 20.7539 32.2161 20.7539 32.3382 20.6807L34.4132 19.5251C34.4783 19.4926 34.519 19.4193 34.519 19.3461C34.519 19.2729 34.4783 19.1996 34.4132 19.1671L30.9467 17.1734C30.8816 17.1327 30.8409 17.0676 30.8409 16.9944V15.7494C30.8409 15.6761 30.8816 15.6029 30.9467 15.5703L32.0289 14.9519C32.094 14.9112 32.1754 14.9112 32.2405 14.9519L33.3228 15.5703C33.3879 15.611 33.4286 15.6761 33.4286 15.7494V16.7259C33.4286 16.7991 33.4693 16.8723 33.5344 16.9049C33.5995 16.9456 33.6808 16.9456 33.7459 16.9049Z" fill="url(#paint4_linear_33_230)"/>
<path d="M32.1917 15.5215C32.1673 15.5052 32.1347 15.5052 32.1103 15.5215L31.4512 15.904C31.4268 15.9202 31.4105 15.9447 31.4105 15.9772V16.7421C31.4105 16.7747 31.4268 16.7991 31.4512 16.8154L32.1103 17.1978C32.1347 17.2141 32.1673 17.2141 32.1917 17.1978L32.8508 16.8154C32.8752 16.7991 32.8915 16.7747 32.8915 16.7421V15.9772C32.8915 15.9447 32.8752 15.9202 32.8508 15.904L32.1917 15.5215Z" fill="url(#paint5_linear_33_230)"/>
<path d="M13.3837 12.0102C13.4237 12.0191 13.4629 12.0341 13.5 12.055L15.2008 13.0367L16.934 14.0324C16.9699 14.0525 17.0026 14.0776 17.0313 14.1064L17.0317 14.1056C17.0657 14.1397 17.0945 14.1808 17.1156 14.2256C17.1401 14.277 17.1538 14.3331 17.1538 14.3904V18.3533L17.1537 18.3557C17.1536 18.3864 17.1498 18.4168 17.1428 18.4462L17.1456 18.451C17.1443 18.4551 17.143 18.4592 17.1416 18.4633L17.2269 18.6056V18.6544L13.4186 20.8597L13.3592 20.7481C13.2661 20.765 13.1695 20.7462 13.085 20.6969L9.64291 18.7195C9.60222 18.6951 9.56153 18.6626 9.52898 18.6219L9.53121 18.6181C9.51059 18.5947 9.49216 18.5693 9.4766 18.5423C9.4428 18.4851 9.42317 18.4212 9.42317 18.3533V14.3904C9.42317 14.2622 9.4917 14.1403 9.59605 14.0628C9.61096 14.0517 9.6266 14.0415 9.64288 14.0324L13.0769 12.055C13.1424 12.0132 13.2167 11.9977 13.2902 11.9988C13.3231 11.9983 13.3554 12.001 13.3861 12.0061L13.3837 12.0102Z" fill="url(#paint6_linear_33_230)"/>
<path d="M12.9223 11.3551L12.9711 11.3307L12.9874 11.3551H12.9223Z" fill="url(#paint7_linear_33_230)"/>
<path d="M17.2351 18.6056L17.2595 18.6463L17.2351 18.6626V18.6056Z" fill="url(#paint8_linear_33_230)"/>
<defs>
<linearGradient id="paint0_linear_33_230" x1="8.51349" y1="12.7479" x2="7.76611" y2="22.8074" gradientUnits="userSpaceOnUse">
<stop stop-color="#41873F"/>
<stop offset="0.3288" stop-color="#418B3D"/>
<stop offset="0.6352" stop-color="#419637"/>
<stop offset="0.9319" stop-color="#3FA92D"/>
<stop offset="1" stop-color="#3FAE2A"/>
</linearGradient>
<linearGradient id="paint1_linear_33_230" x1="8.51349" y1="12.7479" x2="7.76611" y2="22.8074" gradientUnits="userSpaceOnUse">
<stop stop-color="#41873F"/>
<stop offset="0.3288" stop-color="#418B3D"/>
<stop offset="0.6352" stop-color="#419637"/>
<stop offset="0.9319" stop-color="#3FA92D"/>
<stop offset="1" stop-color="#3FAE2A"/>
</linearGradient>
<linearGradient id="paint2_linear_33_230" x1="8.51349" y1="12.7479" x2="7.76611" y2="22.8074" gradientUnits="userSpaceOnUse">
<stop stop-color="#41873F"/>
<stop offset="0.3288" stop-color="#418B3D"/>
<stop offset="0.6352" stop-color="#419637"/>
<stop offset="0.9319" stop-color="#3FA92D"/>
<stop offset="1" stop-color="#3FAE2A"/>
</linearGradient>
<linearGradient id="paint3_linear_33_230" x1="8.51349" y1="12.7479" x2="7.76611" y2="22.8074" gradientUnits="userSpaceOnUse">
<stop stop-color="#41873F"/>
<stop offset="0.3288" stop-color="#418B3D"/>
<stop offset="0.6352" stop-color="#419637"/>
<stop offset="0.9319" stop-color="#3FA92D"/>
<stop offset="1" stop-color="#3FAE2A"/>
</linearGradient>
<linearGradient id="paint4_linear_33_230" x1="8.51349" y1="12.7479" x2="7.76611" y2="22.8074" gradientUnits="userSpaceOnUse">
<stop stop-color="#41873F"/>
<stop offset="0.3288" stop-color="#418B3D"/>
<stop offset="0.6352" stop-color="#419637"/>
<stop offset="0.9319" stop-color="#3FA92D"/>
<stop offset="1" stop-color="#3FAE2A"/>
</linearGradient>
<linearGradient id="paint5_linear_33_230" x1="8.51349" y1="12.7479" x2="7.76611" y2="22.8074" gradientUnits="userSpaceOnUse">
<stop stop-color="#41873F"/>
<stop offset="0.3288" stop-color="#418B3D"/>
<stop offset="0.6352" stop-color="#419637"/>
<stop offset="0.9319" stop-color="#3FA92D"/>
<stop offset="1" stop-color="#3FAE2A"/>
</linearGradient>
<linearGradient id="paint6_linear_33_230" x1="8.51349" y1="12.7479" x2="7.76611" y2="22.8074" gradientUnits="userSpaceOnUse">
<stop stop-color="#41873F"/>
<stop offset="0.3288" stop-color="#418B3D"/>
<stop offset="0.6352" stop-color="#419637"/>
<stop offset="0.9319" stop-color="#3FA92D"/>
<stop offset="1" stop-color="#3FAE2A"/>
</linearGradient>
<linearGradient id="paint7_linear_33_230" x1="8.51349" y1="12.7479" x2="7.76611" y2="22.8074" gradientUnits="userSpaceOnUse">
<stop stop-color="#41873F"/>
<stop offset="0.3288" stop-color="#418B3D"/>
<stop offset="0.6352" stop-color="#419637"/>
<stop offset="0.9319" stop-color="#3FA92D"/>
<stop offset="1" stop-color="#3FAE2A"/>
</linearGradient>
<linearGradient id="paint8_linear_33_230" x1="8.51349" y1="12.7479" x2="7.76611" y2="22.8074" gradientUnits="userSpaceOnUse">
<stop stop-color="#41873F"/>
<stop offset="0.3288" stop-color="#418B3D"/>
<stop offset="0.6352" stop-color="#419637"/>
<stop offset="0.9319" stop-color="#3FA92D"/>
<stop offset="1" stop-color="#3FAE2A"/>
</linearGradient>
</defs>
</svg>
