<svg width="36" height="36" viewBox="0 0 36 36" fill="none" xmlns="http://www.w3.org/2000/svg">
<path d="M29.5992 12.3502C29.2258 12.2217 28.8388 12.1 28.4403 11.985C28.5058 11.7177 28.5659 11.4539 28.6194 11.1946C29.4966 6.93631 28.9231 3.50582 26.9645 2.37635C25.0864 1.29334 22.015 2.42255 18.9131 5.12209C18.6148 5.38168 18.3157 5.65652 18.0167 5.94455C17.8174 5.75398 17.6185 5.56982 17.4201 5.39366C14.1692 2.50714 10.9106 1.29072 8.95396 2.42345C7.07771 3.5096 6.52208 6.73459 7.31173 10.7702C7.38798 11.16 7.47712 11.558 7.57792 11.9628C7.11673 12.0937 6.67151 12.2333 6.24551 12.3817C2.43412 13.7105 0 15.7931 0 17.9533C0 20.1844 2.61303 22.4222 6.58289 23.779C6.89617 23.8861 7.22125 23.9874 7.55626 24.0835C7.44751 24.5212 7.35293 24.9502 7.27354 25.3685C6.5206 29.3341 7.1086 32.4829 8.97985 33.5622C10.9127 34.6768 14.1565 33.5311 17.3152 30.77C17.5648 30.5518 17.8154 30.3203 18.0664 30.0777C18.3917 30.391 18.7165 30.6875 19.0396 30.9656C22.0992 33.5985 25.121 34.6616 26.9905 33.5793C28.9214 32.4615 29.5489 29.0789 28.7342 24.9635C28.672 24.6492 28.5996 24.3281 28.5183 24.0013C28.7461 23.9339 28.9697 23.8644 29.1878 23.7921C33.3148 22.4247 36 20.2142 36 17.9533C36 15.7853 33.4874 13.6887 29.5992 12.3502ZM28.7041 22.3323C28.5072 22.3975 28.3053 22.4605 28.0994 22.5215C27.6438 21.0792 27.0289 19.5454 26.2764 17.9608C26.9945 16.4139 27.5857 14.8998 28.0285 13.4668C28.3968 13.5733 28.7542 13.6857 29.0986 13.8044C32.43 14.9512 34.4621 16.6468 34.4621 17.9533C34.4621 19.345 32.2675 21.1516 28.7041 22.3323ZM27.2255 25.2622C27.5858 27.082 27.6372 28.7273 27.3986 30.0135C27.1842 31.1692 26.753 31.9398 26.2199 32.2484C25.0853 32.905 22.6592 32.0514 20.0426 29.7998C19.7426 29.5417 19.4405 29.2661 19.1374 28.9744C20.1518 27.865 21.1656 26.5753 22.155 25.1429C23.8954 24.9885 25.5396 24.736 27.0307 24.3913C27.1041 24.6876 27.1693 24.9781 27.2255 25.2622ZM12.2732 32.1349C11.1648 32.5263 10.2819 32.5376 9.74829 32.2298C8.61273 31.5749 8.14066 29.0467 8.7846 25.6553C8.85835 25.267 8.94614 24.868 9.04732 24.4602C10.522 24.7863 12.1542 25.021 13.8987 25.1624C14.8948 26.564 15.9379 27.8523 16.9891 28.9804C16.7594 29.2021 16.5307 29.4132 16.3032 29.6121C14.9064 30.833 13.5067 31.6992 12.2732 32.1349ZM7.08027 22.3238C5.32488 21.7238 3.87521 20.944 2.88153 20.0931C1.98864 19.3285 1.53784 18.5693 1.53784 17.9533C1.53784 16.6424 3.49221 14.9704 6.75174 13.834C7.14724 13.6961 7.56125 13.5661 7.99091 13.444C8.44139 14.9094 9.03233 16.4415 9.74547 17.9907C9.0231 19.563 8.42377 21.1195 7.96886 22.602C7.66256 22.514 7.36581 22.4213 7.08027 22.3238ZM8.82099 10.4748C8.14444 7.01725 8.59377 4.40895 9.72445 3.75444C10.9288 3.0572 13.592 4.05133 16.399 6.5437C16.5784 6.703 16.7585 6.86973 16.9392 7.04224C15.8932 8.16536 14.8597 9.444 13.8724 10.8373C12.1793 10.9943 10.5586 11.2464 9.06847 11.5839C8.97478 11.2071 8.8918 10.8368 8.82099 10.4748ZM24.3498 14.3093C23.9935 13.694 23.6278 13.0933 23.255 12.5089C24.4037 12.6541 25.5042 12.8469 26.5376 13.0828C26.2274 14.0771 25.8406 15.1168 25.3854 16.1827C25.0589 15.5627 24.7135 14.9376 24.3498 14.3093ZM18.0172 8.14133C18.7265 8.90983 19.4369 9.76786 20.1356 10.6988C19.4315 10.6655 18.7187 10.6482 18 10.6482C17.2881 10.6482 16.5805 10.6652 15.8808 10.6978C16.5802 9.77555 17.2967 8.91868 18.0172 8.14133ZM11.644 14.3199C11.2882 14.937 10.9492 15.5587 10.6278 16.1815C10.1799 15.1194 9.7968 14.075 9.48383 13.0665C10.511 12.8366 11.6063 12.6487 12.7476 12.5062C12.3695 13.096 12.0008 13.7011 11.644 14.3198V14.3199ZM12.7805 23.5101C11.6013 23.3785 10.4895 23.2003 9.46262 22.9768C9.78058 21.9503 10.1722 20.8835 10.6295 19.7985C10.9518 20.4209 11.2921 21.0429 11.6501 21.6613H11.6502C12.0148 22.2912 12.3927 22.9083 12.7805 23.5101ZM18.0597 27.8737C17.3308 27.0873 16.6038 26.2173 15.8937 25.2816C16.583 25.3086 17.2858 25.3225 18 25.3225C18.7338 25.3225 19.4592 25.3059 20.1731 25.2741C19.4721 26.2267 18.7643 27.098 18.0597 27.8737ZM25.4001 19.7432C25.8813 20.84 26.2869 21.9011 26.609 22.9101C25.5652 23.1482 24.4382 23.34 23.2508 23.4825C23.6245 22.8903 23.9934 22.2793 24.3559 21.6507C24.7226 21.0148 25.0709 20.3779 25.4001 19.7432ZM23.0238 20.8824C22.461 21.8581 21.8833 22.7896 21.2968 23.6688C20.2285 23.7452 19.1249 23.7845 18 23.7845C16.8797 23.7845 15.79 23.7498 14.7406 23.6816C14.1304 22.7909 13.5401 21.8567 12.981 20.8908H12.9811C12.4234 19.9275 11.9101 18.9562 11.4451 17.9902C11.91 17.022 12.4219 16.0496 12.9764 15.0881L12.9763 15.0883C13.5322 14.1242 14.1174 13.1945 14.7219 12.3093C15.7925 12.2284 16.8904 12.1862 17.9999 12.1862H18C19.1145 12.1862 20.2138 12.2287 21.2841 12.3103C21.8794 13.1891 22.4606 14.1157 23.0187 15.0799C23.5832 16.055 24.1017 17.021 24.5707 17.9684C24.1031 18.9321 23.5857 19.9078 23.0238 20.8824ZM26.1963 3.70869C27.4018 4.40389 27.8706 7.20763 27.1132 10.8842C27.0649 11.1188 27.0105 11.3577 26.9514 11.5999C25.4578 11.2553 23.836 10.9988 22.1379 10.8395C21.1487 9.43086 20.1237 8.15024 19.0947 7.04153C19.3714 6.77541 19.6476 6.52165 19.9227 6.28219C22.5805 3.96924 25.0645 3.05604 26.1963 3.70869ZM18 14.7386C19.7754 14.7386 21.2147 16.1779 21.2147 17.9533C21.2147 19.7287 19.7754 21.168 18 21.168C16.2246 21.168 14.7853 19.7287 14.7853 17.9533C14.7853 16.1779 16.2246 14.7386 18 14.7386Z" fill="#00D8FF"/>
</svg>
