<svg width="36" height="36" viewBox="0 0 36 36" fill="none" xmlns="http://www.w3.org/2000/svg">
<path d="M18 7.17188C13.2 7.17188 10.2 9.57187 9 14.3719C10.8 11.9719 12.9 11.0719 15.3 11.6719C16.6693 12.0142 17.6481 13.0076 18.7314 14.1073C20.4962 15.8986 22.5387 17.9719 27 17.9719C31.8 17.9719 34.8 15.5719 36 10.7719C34.2 13.1719 32.1 14.0719 29.7 13.4719C28.3307 13.1295 27.3519 12.1361 26.2686 11.0365C24.5038 9.24514 22.4613 7.17188 18 7.17188ZM9 17.9719C4.2 17.9719 1.2 20.3719 0 25.1719C1.8 22.7719 3.9 21.8719 6.3 22.4719C7.66933 22.8142 8.64807 23.8076 9.7314 24.9073C11.4962 26.6986 13.5387 28.7719 18 28.7719C22.8 28.7719 25.8 26.3719 27 21.5719C25.2 23.9719 23.1 24.8719 20.7 24.2719C19.3307 23.9295 18.3519 22.9361 17.2686 21.8365C15.5038 20.0451 13.4613 17.9719 9 17.9719Z" fill="url(#paint0_linear_33_245)"/>
<path d="M18 7.17188C13.2 7.17188 10.2 9.57187 9 14.3719C10.8 11.9719 12.9 11.0719 15.3 11.6719C16.6693 12.0142 17.6481 13.0076 18.7314 14.1073C20.4962 15.8986 22.5387 17.9719 27 17.9719C31.8 17.9719 34.8 15.5719 36 10.7719C34.2 13.1719 32.1 14.0719 29.7 13.4719C28.3307 13.1295 27.3519 12.1361 26.2686 11.0365C24.5038 9.24514 22.4613 7.17188 18 7.17188ZM9 17.9719C4.2 17.9719 1.2 20.3719 0 25.1719C1.8 22.7719 3.9 21.8719 6.3 22.4719C7.66933 22.8142 8.64807 23.8076 9.7314 24.9073C11.4962 26.6986 13.5387 28.7719 18 28.7719C22.8 28.7719 25.8 26.3719 27 21.5719C25.2 23.9719 23.1 24.8719 20.7 24.2719C19.3307 23.9295 18.3519 22.9361 17.2686 21.8365C15.5038 20.0451 13.4613 17.9719 9 17.9719Z" fill="url(#paint1_linear_33_245)"/>
<defs>
<linearGradient id="paint0_linear_33_245" x1="-1" y1="14.0839" x2="30.0919" y2="32.0107" gradientUnits="userSpaceOnUse">
<stop stop-color="#2298BD"/>
<stop offset="1" stop-color="#0ED7B5"/>
</linearGradient>
<linearGradient id="paint1_linear_33_245" x1="-1" y1="14.0839" x2="30.0919" y2="32.0107" gradientUnits="userSpaceOnUse">
<stop stop-color="#2298BD"/>
<stop offset="1" stop-color="#0ED7B5"/>
</linearGradient>
</defs>
</svg>
